<?xml version="1.0" encoding="utf-8"?>
<svg xmlns="http://www.w3.org/2000/svg" viewBox="0 0 2048 2048"><g transform="translate(0 2048) scale(1 -1)" fill="#ffffff"><path d="M1202 457Q1537 184 1945 58L1845 -84Q1381 110 1089 408V-143H944V398Q682 70 219 -123L121 2Q540 140 842 457H225V578H506V805H123V928H506V1147H225V1266H944V1440L860 1432Q583 1411 346 1403L283 1528Q1067 1562 1536 1647L1657 1524Q1407 1484 1089 1452V1266H1821V1147H1540V928H1925V805H1540V578H1821V457ZM1399 1147H1085V926H1399ZM948 1147H647V926H948ZM1399 807H1085V578H1399ZM948 807H647V578H948Z"/></g></svg>
