<?xml version="1.0" encoding="utf-8"?>
<svg xmlns="http://www.w3.org/2000/svg" viewBox="0 0 1000 1000"><g transform="translate(0 1000) scale(1 -1)" fill="#ffffff"><path d="M52 604H330V483H52ZM440 849H568V66Q568 12 555.0 -18.0Q542 -48 510 -64Q478 -80 428.5 -85.5Q379 -91 310 -91Q308 -72 300.5 -47.5Q293 -23 283.0 1.5Q273 26 263 43Q312 41 355.0 41.0Q398 41 413 41Q428 41 434.0 47.0Q440 53 440 66ZM289 604H314L336 609L418 579Q396 442 352.5 330.0Q309 218 250.5 133.5Q192 49 120 -4Q110 11 92.0 29.5Q74 48 54.5 65.0Q35 82 20 91Q89 138 143.0 209.5Q197 281 234.5 374.5Q272 468 289 578ZM560 703Q584 603 621.5 511.0Q659 419 710.0 339.0Q761 259 828.5 196.5Q896 134 980 94Q965 82 947.0 63.0Q929 44 913.5 22.5Q898 1 887 -17Q771 49 690.0 153.5Q609 258 555.0 393.0Q501 528 465 683ZM841 693 954 614Q911 570 863.0 523.0Q815 476 767.5 434.0Q720 392 678 361L591 428Q632 462 677.5 507.0Q723 552 766.0 600.5Q809 649 841 693Z"/></g></svg>

