<?xml version="1.0" encoding="utf-8"?>
<svg xmlns="http://www.w3.org/2000/svg" viewBox="0 0 1000 1000"><g transform="translate(0 1000) scale(1 -1)" fill="#ffffff"><path d="M546 389Q560 301 587.5 236.0Q615 171 663.5 127.0Q712 83 787.5 58.5Q863 34 972 26Q960 13 946.5 -8.0Q933 -29 922.0 -51.0Q911 -73 904 -91Q783 -76 701.0 -42.0Q619 -8 567.5 49.0Q516 106 485.5 188.5Q455 271 436 383ZM432 442H560Q553 361 541.0 291.0Q529 221 502.0 162.0Q475 103 426.0 55.0Q377 7 297.5 -29.5Q218 -66 101 -91Q96 -76 85.5 -56.0Q75 -36 62.5 -17.5Q50 1 38 14Q144 34 214.0 62.5Q284 91 325.5 129.0Q367 167 388.5 214.0Q410 261 418.5 318.0Q427 375 432 442ZM547 799Q561 719 588.0 659.5Q615 600 661.0 560.5Q707 521 778.0 498.5Q849 476 952 469Q941 456 928.5 436.0Q916 416 905.0 395.5Q894 375 888 358Q774 372 696.5 403.5Q619 435 569.5 487.0Q520 539 490.0 615.0Q460 691 441 794ZM432 850H557Q551 772 538.5 706.5Q526 641 499.5 586.5Q473 532 425.0 489.0Q377 446 300.5 414.0Q224 382 111 360Q104 382 86.0 412.0Q68 442 52 460Q153 476 220.0 501.0Q287 526 327.5 559.5Q368 593 389.0 636.0Q410 679 418.5 732.0Q427 785 432 850ZM246 782 341 751Q323 695 292.5 645.5Q262 596 207 564L122 626Q169 651 200.5 693.0Q232 735 246 782ZM745 786 859 755Q829 710 796.5 666.0Q764 622 736 591L641 622Q659 644 678.5 672.5Q698 701 716.0 731.0Q734 761 745 786ZM237 363 335 331Q317 272 286.0 220.5Q255 169 198 136L109 195Q158 222 190.0 266.5Q222 311 237 363ZM737 361 856 324Q824 279 790.5 236.0Q757 193 729 162L630 198Q649 220 668.5 248.0Q688 276 706.5 305.5Q725 335 737 361Z"/></g></svg>

