<?xml version="1.0" encoding="utf-8"?>
<svg xmlns="http://www.w3.org/2000/svg" viewBox="0 0 2048 2048"><g transform="translate(0 2048) scale(1 -1)" fill="#ffffff"><path d="M874 690Q1069 891 1179 1214L1306 1169Q1262 1057 1210 952H1443Q1505 1081 1542 1204L1677 1163Q1633 1060 1572 952H1896V837H1560V657H1832V548H1560V369H1832V260H1560V74H1943V-43H1179V-143H1048V690Q993 616 940 556Q955 525 974 479L851 426Q834 474 809 532Q748 523 606 509V-143H477V499Q359 491 137 481L100 610Q219 610 266 612H338Q357 631 389 665Q416 694 428 706Q293 868 149 972L243 1064Q297 1021 346 972Q443 1088 518 1226H227V1626H1816V1226H526L641 1152Q534 1003 424 890Q464 848 508 792Q510 796 518 804Q624 919 749 1091L870 1019Q696 808 483 614Q595 617 749 626H766Q716 717 690 761L802 802Q828 769 874 690ZM1433 837H1179V657H1433ZM1433 74V260H1179V74ZM1433 369V548H1179V369ZM368 1515V1335H712V1515ZM1675 1335V1515H1322V1335ZM845 1515V1335H1187V1515ZM114 -2Q214 177 258 418L387 383Q335 105 237 -82ZM809 12Q765 217 671 391L788 440Q874 297 944 74Z"/></g></svg>
